<svg viewBox="0 0 174 91.71" xmlns="http://www.w3.org/2000/svg"><g fill="#fff"><path d="m49.22 60.94h7.63v30.23h-7.63z"/><path d="m118.36 69.61a13.23 13.23 0 0 0 -6.36-1.61c-4.94 0-8.36 3.45-8.36 8.07s3.28 8.07 8.36 8.07a13.6 13.6 0 0 0 6.41-1.6v8.12a24.46 24.46 0 0 1 -7 1.07c-8.59 0-16.11-5.91-16.11-15.66 0-9 6.81-15.64 16.11-15.64a23 23 0 0 1 7 1.08z"/><path d="m38.73 69.61a13.21 13.21 0 0 0 -6.4-1.61c-4.95 0-8.33 3.43-8.33 8.05s3.27 8.07 8.37 8.07a13.63 13.63 0 0 0 6.4-1.6v8.12a24.36 24.36 0 0 1 -7 1.07c-8.56 0-16.08-5.91-16.08-15.66 0-9 6.8-15.64 16.08-15.64a23.08 23.08 0 0 1 7 1.08z"/><path d="m158.33 76.05a16 16 0 1 1 -16-15.64 15.52 15.52 0 0 1 16 15.64m-16-8a8 8 0 1 0 7.9 8 7.82 7.82 0 0 0 -7.9-8"/><path d="m85.78 67.81a26.57 26.57 0 0 0 -6-.92c-3.06 0-4.72 1-4.72 2.48 0 1.83 2.24 2.48 3.49 2.88l2.11.67c5 1.57 7.21 5 7.21 8.64 0 7.6-6.69 10.15-12.52 10.15a47 47 0 0 1 -8.24-.82v-7a28.62 28.62 0 0 0 7.21 1.12c3.8 0 5.54-1.11 5.54-2.83 0-1.53-1.51-2.41-3.4-3l-1.63-.53c-4.24-1.34-7.8-3.84-7.8-8.84 0-5.66 4.24-9.46 11.28-9.46a31.85 31.85 0 0 1 7.43 1z"/><path d="m7.58 28.45a3.79 3.79 0 0 0 -7.58 0v7.93a3.79 3.79 0 0 0 7.58 0z"/><path d="m28.39 18a3.79 3.79 0 0 0 -7.58 0v18.38a3.79 3.79 0 0 0 7.58 0z"/><path d="m49.19 3.78a3.79 3.79 0 0 0 -7.58 0v40.15a3.79 3.79 0 0 0 7.58 0z"/><path d="m70 18a3.78 3.78 0 0 0 -7.56 0v18.38a3.78 3.78 0 0 0 7.56 0z"/><path d="m90.78 28.45a3.78 3.78 0 1 0 -7.55 0v7.93a3.78 3.78 0 1 0 7.55 0z"/><path d="m111.6 18a3.78 3.78 0 1 0 -7.55 0v18.38a3.78 3.78 0 1 0 7.55 0z"/><path d="m132.41 3.78a3.78 3.78 0 1 0 -7.55 0v40.15a3.78 3.78 0 1 0 7.55 0z"/><path d="m153.22 18a3.8 3.8 0 0 0 -7.6 0v18.38a3.8 3.8 0 0 0 7.6 0z"/><path d="m174 28.45a3.78 3.78 0 1 0 -7.55 0v7.93a3.78 3.78 0 1 0 7.55 0z"/></g></svg>